<?xml version="1.0" encoding="UTF-8" standalone="no"?>
<!-- Created with Inkscape (http://www.inkscape.org/) -->

<svg
   width="512"
   height="512"
   viewBox="0 0 135.46667 135.46667"
   version="1.1"
   id="svg1"
   inkscape:version="1.4.3 (0d15f75, 2025-12-25)"
   sodipodi:docname="colorful-array.svg"
   xml:space="preserve"
   inkscape:export-filename="colorful-array.png"
   inkscape:export-xdpi="768"
   inkscape:export-ydpi="768"
   xmlns:inkscape="http://www.inkscape.org/namespaces/inkscape"
   xmlns:sodipodi="http://sodipodi.sourceforge.net/DTD/sodipodi-0.dtd"
   xmlns:xlink="http://www.w3.org/1999/xlink"
   xmlns="http://www.w3.org/2000/svg"
   xmlns:svg="http://www.w3.org/2000/svg"><sodipodi:namedview
     id="namedview1"
     pagecolor="#505050"
     bordercolor="#eeeeee"
     borderopacity="1"
     inkscape:showpageshadow="0"
     inkscape:pageopacity="0"
     inkscape:pagecheckerboard="0"
     inkscape:deskcolor="#505050"
     inkscape:document-units="mm"
     inkscape:zoom="0.70710678"
     inkscape:cx="109.60155"
     inkscape:cy="129.40054"
     inkscape:window-width="1920"
     inkscape:window-height="1009"
     inkscape:window-x="1912"
     inkscape:window-y="-8"
     inkscape:window-maximized="1"
     inkscape:current-layer="layer4"
     inkscape:export-bgcolor="#000000ff" /><defs
     id="defs1"><linearGradient
       id="linearGradient3"
       inkscape:collect="always"><stop
         style="stop-color:#333333;stop-opacity:1;"
         offset="0"
         id="stop3" /><stop
         style="stop-color:#ffffff;stop-opacity:1;"
         offset="1"
         id="stop4" /></linearGradient><linearGradient
       id="linearGradient1"
       inkscape:collect="always"><stop
         style="stop-color:#000000;stop-opacity:1;"
         offset="0"
         id="stop1" /><stop
         style="stop-color:#262626;stop-opacity:1;"
         offset="1"
         id="stop2" /></linearGradient><linearGradient
       inkscape:collect="always"
       xlink:href="#linearGradient1"
       id="linearGradient2"
       x1="0"
       y1="135.46666"
       x2="270.93332"
       y2="0"
       gradientUnits="userSpaceOnUse"
       gradientTransform="matrix(0.5,0,0,1,6.3248697e-6,0)" /><linearGradient
       inkscape:collect="always"
       xlink:href="#linearGradient3"
       id="linearGradient4"
       x1="2.1166666"
       y1="130.15572"
       x2="27.516596"
       y2="130.15572"
       gradientUnits="userSpaceOnUse" /><filter
       inkscape:collect="always"
       style="color-interpolation-filters:sRGB"
       id="filter536"
       x="-0.038250001"
       y="-0.064421053"
       width="1.0765"
       height="1.1288421"><feGaussianBlur
         inkscape:collect="always"
         stdDeviation="1.61925"
         id="feGaussianBlur536" /></filter></defs><g
     inkscape:groupmode="layer"
     id="layer2"
     inkscape:label="Background" /><g
     inkscape:groupmode="layer"
     id="layer3"
     inkscape:label="Logo Text" /><g
     inkscape:groupmode="layer"
     id="layer5"
     inkscape:label="Colorful Array" /><g
     inkscape:groupmode="layer"
     id="layer4"
     inkscape:label="Text"><g
       id="g544"><g
         id="g543"><rect
           style="fill:url(#linearGradient2);stroke:#ffffff;stroke-width:0.29819;stroke-linecap:round;stroke-linejoin:round"
           id="rect1"
           width="135.46666"
           height="135.46666"
           x="7.1207683e-06"
           y="3.5603841e-06"
           rx="4.2333331"
           ry="4.2333331" /><path
           style="fill:url(#linearGradient4);stroke-width:0.0256928"
           d="m 5.0836866,133.34337 c -0.30857,-0.0303 -0.50687,-0.0655 -0.66718,-0.11869 l -0.052,-0.0172 -0.007,-0.0422 c -0.004,-0.0232 -0.0185,-0.10485 -0.0319,-0.18152 -0.0319,-0.18282 -0.12263,-0.68953 -0.13513,-0.75457 -0.0571,-0.29932 -0.14055,-0.76274 -0.13768,-0.76558 0.002,-0.002 0.0566,0.0324 0.12141,0.0762 0.0648,0.0439 0.17909,0.12112 0.25386,0.17158 0.0747,0.0505 0.18642,0.12609 0.24812,0.1678 0.0617,0.0417 0.19782,0.13346 0.3025,0.20392 0.62362,0.41939 1.4981,1.02084 1.49868,1.03077 7.1e-4,0.0121 -0.242,0.094 -0.38383,0.13061 -0.26878,0.0693 -0.55939,0.10711 -0.81173,0.10546 -0.077,-5.4e-4 -0.16597,-0.003 -0.19774,-0.006 z m -1.13802,-0.29485 c -0.59399,-0.28012 -1.07398,-0.72406 -1.41322,-1.30707 l -0.0247,-0.0425 0.0428,-0.0663 c 0.0236,-0.0365 0.0883,-0.13663 0.14371,-0.22262 0.13979,-0.2165 0.36969,-0.5658 0.66221,-1.00596 0.0795,-0.11961 0.14899,-0.22614 0.15456,-0.23685 0.006,-0.0105 0.012,-0.0182 0.0136,-0.0165 0.002,0.002 0.0381,0.19228 0.0812,0.4238 0.043,0.23151 0.0829,0.4454 0.0884,0.47532 0.012,0.0635 0.0813,0.44442 0.11584,0.63559 0.0136,0.0729 0.0423,0.23351 0.0648,0.3569 0.0225,0.12337 0.0453,0.25032 0.051,0.2821 0.006,0.0318 0.0209,0.11751 0.0341,0.19034 0.0136,0.0729 0.0283,0.15856 0.0339,0.19035 0.0286,0.16334 0.0646,0.36548 0.0676,0.37898 0.002,0.009 8.9e-4,0.0154 -0.002,0.0154 -0.003,0 -0.0539,-0.0229 -0.11314,-0.0508 z m 2.63355,-0.21642 c -0.20609,-0.13723 -0.44253,-0.29661 -0.605,-0.4079 -0.0467,-0.0321 -0.11871,-0.0812 -0.15975,-0.10919 -0.0412,-0.028 -0.0963,-0.0657 -0.12233,-0.0838 -0.0262,-0.0181 -0.0874,-0.0599 -0.13587,-0.0934 -0.11374,-0.078 -0.26173,-0.18798 -0.26173,-0.19443 0,-0.003 0.0151,-0.007 0.0323,-0.009 0.0178,-0.003 0.0797,-0.0136 0.13769,-0.0249 0.058,-0.0105 0.1696,-0.0323 0.24812,-0.0472 0.0785,-0.0151 0.15651,-0.03 0.17334,-0.0334 0.0169,-0.003 0.0887,-0.0173 0.15976,-0.0307 0.18602,-0.0351 0.93788,-0.18172 1.532908,-0.29888 0.10289,-0.0202 0.28177,-0.0553 0.39767,-0.078 0.11584,-0.0227 0.21798,-0.043 0.22686,-0.0448 0.0151,-0.003 0.0156,-0.002 0.012,0.0151 -0.012,0.0466 -0.13542,0.29275 -0.20643,0.4107 -0.0942,0.15646 -0.21863,0.32967 -0.31719,0.44152 -0.23427,0.26586 -0.43977,0.44112 -0.751438,0.6409 -0.0464,0.0298 -0.14462,0.0868 -0.14943,0.0868 -0.002,0 -0.0969,-0.0621 -0.21089,-0.13799 z m 7.6067984,-0.30094 c -0.009,-0.002 -0.0354,-0.006 -0.0579,-0.0105 -0.17045,-0.0307 -0.31149,-0.14672 -0.36804,-0.30242 -0.0707,-0.19468 -0.0314,-0.40897 0.10092,-0.55043 0.0853,-0.0911 0.19125,-0.13814 0.34519,-0.153 0.36521,-0.0352 0.62159,0.1754 0.62115,0.51034 -3.4e-4,0.2422 -0.14385,0.43074 -0.37295,0.48998 -0.0528,0.0136 -0.2242,0.0238 -0.26852,0.016 z m 0.2452,-0.13181 c 0.0993,-0.036 0.184,-0.11554 0.21766,-0.20418 0.0635,-0.16736 0.0315,-0.35103 -0.0804,-0.46126 -0.0782,-0.0769 -0.1653,-0.11041 -0.28869,-0.11057 -0.0802,-1.4e-4 -0.14974,0.0151 -0.20939,0.045 -0.0514,0.0261 -0.11675,0.0913 -0.14461,0.14431 -0.0396,0.0756 -0.0488,0.11599 -0.0482,0.21245 3.6e-4,0.0728 0.003,0.0928 0.0184,0.13994 0.0398,0.12111 0.13181,0.20858 0.25609,0.24324 0.0589,0.0164 0.0669,0.0172 0.14657,0.0151 0.0626,-0.002 0.0848,-0.006 0.13257,-0.0234 z m 6.35892,0.12594 c -0.25961,-0.0445 -0.42003,-0.23687 -0.41969,-0.50349 1.7e-4,-0.18452 0.0786,-0.33652 0.22056,-0.42727 0.0678,-0.0434 0.14732,-0.0681 0.25532,-0.0794 0.14959,-0.0156 0.29875,0.0151 0.40558,0.082 0.17574,0.11103 0.25826,0.34358 0.20114,0.56694 -0.0187,0.0728 -0.0386,0.11524 -0.0821,0.17376 -0.0642,0.0865 -0.17119,0.15415 -0.28515,0.18026 -0.0682,0.0156 -0.22423,0.0194 -0.29571,0.007 z m 0.25183,-0.11479 c 0.16763,-0.0461 0.27091,-0.18068 0.28003,-0.36499 0.006,-0.12788 -0.0294,-0.22813 -0.11026,-0.30976 -0.0793,-0.08 -0.16337,-0.11223 -0.29245,-0.11223 -0.0851,0 -0.13272,0.0105 -0.19864,0.043 -0.14446,0.0718 -0.22271,0.23411 -0.19963,0.41402 0.0229,0.17894 0.1285,0.29612 0.30244,0.33596 0.0494,0.012 0.16696,0.007 0.21849,-0.006 z m 5.6009,0.11524 c -0.10244,-0.0167 -0.16983,-0.0455 -0.22628,-0.0963 -0.0515,-0.0463 -0.0816,-0.10379 -0.0935,-0.17825 l -0.004,-0.0289 h 0.0747 0.0747 l 0.005,0.0236 c 0.0167,0.10289 0.12005,0.16858 0.28008,0.17801 0.15364,0.009 0.27307,-0.0294 0.32577,-0.10469 0.0285,-0.0408 0.0328,-0.10304 0.009,-0.13739 -0.0378,-0.0556 -0.094,-0.0746 -0.30387,-0.10198 -0.22694,-0.0298 -0.29488,-0.0497 -0.3594,-0.10545 -0.0389,-0.0334 -0.0607,-0.0729 -0.0688,-0.12428 -0.0247,-0.15436 0.0615,-0.2684 0.24059,-0.31822 0.0891,-0.0249 0.2602,-0.0256 0.36708,-0.002 0.0554,0.012 0.12925,0.0499 0.16624,0.0844 0.0393,0.0368 0.0729,0.0991 0.0794,0.14748 l 0.004,0.0323 h -0.0756 c -0.0675,0 -0.0758,-9e-4 -0.0758,-0.0121 -1.1e-4,-0.0234 -0.0323,-0.0803 -0.055,-0.0976 -0.051,-0.0387 -0.0916,-0.0514 -0.19287,-0.0601 -0.16115,-0.0136 -0.274,0.0312 -0.31329,0.12519 -0.0262,0.063 0.002,0.12397 0.0715,0.15428 0.0169,0.007 0.12668,0.0298 0.24813,0.0506 0.11975,0.0207 0.23337,0.0419 0.25241,0.0474 0.0967,0.0279 0.15971,0.10244 0.16979,0.20079 0.006,0.0519 -0.007,0.11358 -0.0352,0.15926 -0.0399,0.0681 -0.13361,0.12653 -0.2453,0.15317 -0.0765,0.0182 -0.23893,0.0235 -0.31859,0.0105 z M 8.9652746,132.02186 v -0.48604 h 0.0679 0.0679 v 0.43166 0.43166 h 0.28551 0.28551 v 0.0437 c 0,0.024 -0.002,0.0485 -0.004,0.0544 -0.003,0.009 -0.0411,0.0105 -0.35349,0.0105 h -0.34936 z m 1.3347004,0.40279 c 0.0238,-0.0458 0.0687,-0.13227 0.0996,-0.19204 0.031,-0.0598 0.0706,-0.13633 0.0884,-0.16996 0.0176,-0.0336 0.0863,-0.16594 0.1526,-0.294 l 0.12051,-0.23283 0.0827,3e-5 0.0827,1e-5 0.0935,0.18183 c 0.10559,0.20517 0.16686,0.32346 0.30802,0.59435 0.0539,0.10349 0.0981,0.18994 0.0981,0.19204 0,0.002 -0.0352,0.004 -0.0782,0.004 h -0.0782 l -0.0628,-0.12579 -0.0628,-0.12578 h -0.30267 -0.30268 l -0.0628,0.12578 -0.0628,0.12579 h -0.0784 -0.0784 z m 0.78622,-0.28034 c 0,-0.012 -0.24163,-0.48506 -0.24539,-0.48098 -0.0105,0.012 -0.24193,0.47735 -0.23862,0.48067 0.005,0.004 0.48401,0.004 0.48401,3.5e-4 z m 1.02648,-0.12306 v -0.48666 l 0.294,0.003 c 0.25432,0.003 0.3009,0.004 0.345,0.0151 0.116,0.028 0.16991,0.078 0.19022,0.17638 0.0151,0.0731 -0.006,0.15799 -0.0495,0.19999 -0.0244,0.0234 -0.0812,0.0537 -0.11298,0.0601 -0.0321,0.006 -0.0309,0.0136 0.003,0.0192 0.0458,0.007 0.12172,0.0476 0.14597,0.0784 0.0398,0.0502 0.0512,0.0851 0.0512,0.15657 0,0.0564 -0.003,0.0693 -0.0183,0.10198 -0.025,0.0511 -0.0668,0.0911 -0.12399,0.11931 -0.0813,0.0401 -0.119,0.0439 -0.4394,0.0439 h -0.28491 z m 0.57178,0.37099 c 0.0958,-0.0181 0.14146,-0.0617 0.14703,-0.141 0.007,-0.10334 -0.0377,-0.16279 -0.13964,-0.1844 -0.022,-0.004 -0.11403,-0.007 -0.23624,-0.007 h -0.2002 v 0.16996 0.16993 h 0.19621 c 0.10786,0 0.21269,-0.003 0.23283,-0.007 z m 0.049,-0.46809 c 0.0207,-0.0105 0.0395,-0.0263 0.0511,-0.0437 0.016,-0.0243 0.0182,-0.0343 0.0182,-0.0824 0,-0.0697 -0.0151,-0.0972 -0.0666,-0.12232 -0.0512,-0.0248 -0.10906,-0.0307 -0.3053,-0.0309 l -0.17477,-1.2e-4 -0.002,0.14628 c -9e-4,0.0804 -9e-4,0.14852 -1.8e-4,0.15126 8.9e-4,0.003 0.10184,0.003 0.22432,0.002 0.21709,-0.003 0.22346,-0.004 0.25539,-0.0196 z m 2.86655,0.0978 v -0.48604 l 0.26681,5e-5 c 0.14673,2e-5 0.29388,0.003 0.32694,0.007 0.17751,0.0203 0.25563,0.0955 0.2559,0.24596 1.8e-4,0.10997 -0.0704,0.19427 -0.18729,0.2237 l -0.0327,0.007 0.0417,0.012 c 0.0901,0.0247 0.11524,0.0621 0.14416,0.21435 0.0236,0.12503 0.0473,0.23875 0.0526,0.25244 0.003,0.007 -0.009,0.009 -0.0696,0.007 l -0.0732,-0.002 -0.009,-0.0306 c -0.004,-0.0169 -0.0198,-0.0885 -0.0332,-0.15956 -0.0136,-0.0709 -0.0297,-0.13964 -0.0361,-0.15282 -0.006,-0.0136 -0.0243,-0.0333 -0.0396,-0.0448 -0.0452,-0.0342 -0.0901,-0.0404 -0.29156,-0.0404 h -0.17675 l -0.002,0.21584 -0.002,0.21585 h -0.0679 -0.0679 z m 0.57781,-0.0684 c 0.0875,-0.0207 0.12246,-0.0633 0.12217,-0.14959 -1.5e-4,-0.05 -0.0151,-0.0922 -0.0379,-0.11268 -0.007,-0.006 -0.0327,-0.0183 -0.0571,-0.0272 -0.043,-0.0156 -0.0503,-0.0161 -0.25492,-0.0161 h -0.21074 l -0.002,0.15805 -0.002,0.15805 0.19895,-1.1e-4 c 0.15424,-7e-5 0.20891,-0.003 0.24315,-0.0105 z m 0.9517,0.55012 c 0,-0.003 0.0194,-0.0413 0.0432,-0.0866 0.0238,-0.0454 0.0764,-0.14657 0.11689,-0.22515 0.0405,-0.0785 0.11584,-0.22382 0.1676,-0.3229 0.0517,-0.0991 0.11147,-0.21454 0.13301,-0.25659 l 0.0389,-0.0764 0.0827,-4e-5 h 0.0827 l 0.0356,0.0697 c 0.0196,0.0383 0.047,0.0911 0.0608,0.1172 0.0136,0.0262 0.0537,0.10258 0.0883,0.16995 0.0346,0.0673 0.0791,0.15294 0.0985,0.19033 0.0196,0.0374 0.0639,0.12308 0.0985,0.19035 0.0346,0.0673 0.0765,0.14763 0.0931,0.17844 l 0.0299,0.0561 h -0.0803 -0.0803 l -0.0628,-0.12579 -0.0628,-0.12579 -0.30423,3.4e-4 -0.30422,3.7e-4 -0.0608,0.12533 -0.0608,0.12533 h -0.0767 c -0.0421,0 -0.0768,-0.002 -0.0768,-0.004 z m 0.82254,-0.36285 c 0,-0.003 -0.0538,-0.11434 -0.11946,-0.24569 l -0.11946,-0.23886 -0.012,0.0198 c -0.022,0.0368 -0.23197,0.4574 -0.23197,0.46458 0,0.005 0.077,0.007 0.24132,0.007 0.15724,0 0.24131,-0.003 0.24131,-0.007 z m 1.23042,-0.0611 v -0.42825 h -0.20735 -0.20732 v -0.0579 -0.0579 h 0.48604 0.48605 v 0.0579 0.0579 h -0.20734 -0.20733 v 0.42825 0.42827 h -0.0714 -0.0714 z m 3.05904,-0.0583 v -0.48662 l 0.30759,0.003 c 0.33401,0.003 0.35206,0.004 0.43093,0.0437 0.0426,0.0209 0.0728,0.0521 0.0935,0.0969 0.012,0.0256 0.0151,0.0439 0.0151,0.10574 0,0.0702 -9e-4,0.0769 -0.0202,0.11118 -0.0332,0.0597 -0.0807,0.0939 -0.16337,0.11689 l -0.0408,0.012 0.0306,0.004 c 0.0825,0.0136 0.12669,0.0548 0.14928,0.13829 0.005,0.0161 0.0169,0.082 0.028,0.14612 0.0105,0.0642 0.0247,0.13256 0.0301,0.15181 0.006,0.0193 0.0105,0.0369 0.0105,0.039 0,0.002 -0.0319,0.004 -0.0708,0.004 h -0.0708 l -0.007,-0.0221 c -0.009,-0.0301 -0.0188,-0.0731 -0.0387,-0.18153 -0.009,-0.0506 -0.0214,-0.10605 -0.027,-0.12323 -0.0288,-0.088 -0.10605,-0.11027 -0.37012,-0.1068 l -0.14612,0.002 -0.002,0.21584 -0.002,0.21582 h -0.0679 -0.0679 z m 0.61456,-0.0776 c 0.0262,-0.0105 0.0474,-0.0261 0.0611,-0.043 0.0196,-0.0244 0.0211,-0.0303 0.0229,-0.0884 0.002,-0.0546 3e-5,-0.0655 -0.0136,-0.0891 -0.0385,-0.0662 -0.0775,-0.0747 -0.34172,-0.0749 l -0.20393,-8e-5 -0.002,0.15855 -0.002,0.15855 0.21934,-0.003 c 0.21604,-0.002 0.21998,-0.003 0.25953,-0.0191 z m 1.02371,0.0782 v -0.48604 h 0.0714 0.0714 v 0.48604 0.48606 h -0.0714 -0.0714 z m 0.95169,0 v -0.48604 h 0.36709 0.36709 v 0.0544 0.0544 h -0.29583 -0.29584 l 0.002,0.15464 0.002,0.15467 0.277,0.002 0.27702,0.002 v 0.0544 0.0542 h -0.2787 -0.27872 v 0.16655 0.16654 h 0.30591 0.30589 v 0.0544 0.0544 h -0.37728 -0.37728 z M 2.3478366,131.35575 c -0.084,-0.18988 -0.16194,-0.47871 -0.19997,-0.74087 -0.0276,-0.19016 -0.0312,-0.24307 -0.0312,-0.45546 3e-5,-0.23141 0.007,-0.32292 0.0448,-0.54724 0.0247,-0.14852 0.0726,-0.35008 0.0878,-0.36895 0.003,-0.003 0.0682,-0.0173 0.14641,-0.0319 0.15738,-0.0296 0.3441,-0.066 0.80162,-0.15649 0.52372,-0.10364 0.79568,-0.15639 0.80694,-0.15639 0.007,0 -0.0281,0.0589 -0.10484,0.17504 -0.23723,0.35914 -0.40562,0.6149 -0.76981,1.16914 -0.28388,0.43205 -0.68856,1.04282 -0.73921,1.1157 l -0.0253,0.0365 z m 18.3722484,-0.1877 c -0.0994,-0.007 -0.22435,-0.0351 -0.30497,-0.0659 -0.1056,-0.0403 -0.16726,-0.0782 -0.2342,-0.14401 -0.0499,-0.0491 -0.0635,-0.0675 -0.0899,-0.12232 -0.0494,-0.10228 -0.0617,-0.1638 -0.0616,-0.30591 1.6e-4,-0.0997 0.003,-0.13602 0.0191,-0.22433 0.0225,-0.12473 0.0416,-0.21643 0.23285,-1.11144 0.0247,-0.11584 0.0499,-0.23521 0.0559,-0.26512 l 0.0105,-0.0544 0.31179,-0.002 0.31178,-0.002 -0.003,0.0188 c -0.004,0.024 -0.17971,0.85925 -0.18839,0.8957 -0.003,0.0151 -0.0263,0.12201 -0.0505,0.23791 -0.076,0.36386 -0.0804,0.42967 -0.0365,0.5225 0.0554,0.11675 0.15633,0.1724 0.32494,0.17931 0.13589,0.006 0.22169,-0.0167 0.31819,-0.0825 0.0979,-0.0668 0.17054,-0.17127 0.2178,-0.31338 0.0265,-0.0795 0.0486,-0.17052 0.0824,-0.33651 0.007,-0.0356 0.0225,-0.10891 0.0339,-0.16316 0.0121,-0.0542 0.0268,-0.1276 0.0341,-0.16314 0.007,-0.0356 0.0218,-0.1059 0.0325,-0.15635 0.0105,-0.0505 0.045,-0.21489 0.0765,-0.36536 l 0.0573,-0.2736 0.3008,-10e-6 c 0.16545,-2e-5 0.30081,9e-4 0.30081,0.003 0,0.002 -0.0155,0.0758 -0.0343,0.16485 -0.019,0.0892 -0.0386,0.18347 -0.0439,0.20965 -0.005,0.0262 -0.0189,0.0919 -0.0305,0.14612 -0.012,0.0542 -0.0557,0.26528 -0.0984,0.46904 -0.0426,0.20378 -0.0836,0.39497 -0.0913,0.42487 -0.0383,0.14959 -0.10093,0.30383 -0.16566,0.40788 -0.19664,0.31612 -0.58177,0.48258 -1.1064,0.47828 -0.0617,-5.4e-4 -0.14371,-0.003 -0.18225,-0.006 z m -13.8553284,-0.0573 c 0,-0.004 0.0459,-0.082 0.22231,-0.37357 0.133318,-0.22037 0.160738,-0.26588 0.176418,-0.29253 0.0181,-0.0307 0.2106,-0.34927 0.28126,-0.46538 0.0421,-0.0691 0.0955,-0.1579 0.1187,-0.19714 0.0232,-0.0394 0.13182,-0.21975 0.24129,-0.40109 0.10951,-0.18133 0.22343,-0.37023 0.25322,-0.41976 l 0.0541,-0.0901 h 0.37609 0.37609 l 0.007,0.0357 c 0.004,0.0196 0.0193,0.10304 0.0341,0.18524 0.0151,0.0822 0.0485,0.26886 0.075,0.41467 0.17903,0.98176 0.22161,1.21593 0.2559,1.40715 0.0167,0.0934 0.0323,0.17684 0.0342,0.18524 l 0.005,0.0154 h -0.34988 -0.34988 l -0.004,-0.0323 c -0.002,-0.0178 -0.0151,-0.11646 -0.0282,-0.21924 -0.0136,-0.10288 -0.0241,-0.18923 -0.0241,-0.19203 -2e-5,-0.003 -0.2016,-0.004 -0.44798,-0.004 h -0.44796 l -0.12247,0.22263 -0.12247,0.22261 -0.30645,0.002 c -0.168528,8.9e-4 -0.306428,1e-5 -0.306428,-0.002 z m 1.696328,-0.87487 c -0.002,-0.009 -0.0187,-0.18048 -0.0375,-0.38238 -0.0187,-0.20189 -0.0372,-0.3933 -0.041,-0.42532 -0.005,-0.0321 -0.007,-0.0711 -0.007,-0.0866 0,-0.0374 -0.0136,-0.0372 -0.0324,5.4e-4 -0.0199,0.0392 -0.11916,0.22418 -0.23617,0.44016 -0.0234,0.043 -0.0553,0.10259 -0.0713,0.13256 -0.0158,0.03 -0.0312,0.0574 -0.0339,0.0611 -0.003,0.003 -0.0283,0.0514 -0.0566,0.10574 -0.0285,0.0546 -0.0595,0.11254 -0.0688,0.1291 -0.009,0.0165 -0.0173,0.0324 -0.0173,0.0352 -5e-5,0.003 0.13618,0.005 0.30256,0.005 h 0.30264 z m 1.3967,0.87231 c 0,-0.003 0.0155,-0.0793 0.0345,-0.16825 0.019,-0.0891 0.0553,-0.26136 0.0809,-0.38286 0.0254,-0.12158 0.0941,-0.4473 0.15235,-0.72399 0.0872,-0.41457 0.17993,-0.85474 0.19849,-0.94318 l 0.004,-0.0187 0.57558,8e-5 c 0.34522,4e-5 0.60815,0.003 0.65697,0.007 0.20894,0.0184 0.33159,0.0706 0.43752,0.18652 0.0395,0.043 0.0907,0.14099 0.10635,0.20341 0.0454,0.17959 -0.0136,0.45908 -0.13452,0.63947 -0.10665,0.15891 -0.28343,0.29536 -0.44325,0.34215 -0.14852,0.0435 -0.28348,0.0554 -0.63037,0.0554 l -0.2497,4e-5 -0.003,0.0154 c -0.007,0.0318 -0.0401,0.18676 -0.0892,0.42318 -0.028,0.13467 -0.0535,0.25542 -0.0568,0.26851 -0.003,0.0136 -0.009,0.0414 -0.0136,0.0628 l -0.007,0.039 h -0.30883 c -0.18542,0 -0.3088116,-0.003 -0.3088116,-0.006 z m 1.3765604,-1.24941 c 0.10831,-0.0365 0.17635,-0.10229 0.2161,-0.20922 0.0488,-0.13121 0.0416,-0.22563 -0.0221,-0.2894 -0.0613,-0.0613 -0.14733,-0.0764 -0.41782,-0.0728 l -0.14914,0.002 -0.029,0.13934 c -0.0657,0.31471 -0.0907,0.4377 -0.0907,0.4447 0,0.004 0.0655,0.006 0.22602,0.003 0.2021,-0.003 0.23036,-0.006 0.26683,-0.0178 z m 1.16583,1.24635 c 0,-0.009 0.0559,-0.27621 0.24883,-1.18706 0.0202,-0.0953 0.059,-0.28017 0.13151,-0.6254 0.0303,-0.14401 0.061,-0.28924 0.0686,-0.3229 0.007,-0.0336 0.0152,-0.0681 0.017,-0.0765 l 0.003,-0.0154 h 0.836 c 0.45981,0 0.836,0.002 0.836,0.004 0,0.006 -0.0813,0.39736 -0.0857,0.41182 -0.003,0.0105 -0.0348,0.012 -0.53505,0.012 l -0.53147,2e-5 -0.047,0.22602 c -0.0259,0.12428 -0.0484,0.22983 -0.05,0.2345 -0.003,0.006 0.10003,0.009 0.4974,0.009 0.27903,0 0.50037,0.003 0.50037,0.006 0,0.004 -0.0158,0.0802 -0.0788,0.37307 l -0.0105,0.0493 h -0.50131 -0.50134 l -0.0486,0.23538 c -0.0268,0.12939 -0.047,0.23805 -0.045,0.24133 0.002,0.003 0.24308,0.006 0.54383,0.006 h 0.54015 l -0.003,0.0152 c -0.006,0.0243 -0.0426,0.19595 -0.0664,0.30929 l -0.0217,0.10364 h -0.84817 c -0.71607,0 -0.84816,-0.002 -0.84816,-0.009 z m 2.42004,0.006 c 0,-0.002 0.007,-0.0395 0.0173,-0.0833 0.009,-0.0439 0.0216,-0.10123 0.0268,-0.12729 0.0105,-0.0528 0.0372,-0.17939 0.074,-0.3501 0.0136,-0.0617 0.0459,-0.21616 0.0726,-0.34328 0.0267,-0.12714 0.0575,-0.27396 0.0686,-0.32629 0.0105,-0.0524 0.0258,-0.12278 0.0327,-0.15636 0.007,-0.0336 0.0315,-0.14988 0.0547,-0.25833 0.0232,-0.10846 0.0494,-0.23232 0.0583,-0.2753 0.009,-0.043 0.0256,-0.12248 0.037,-0.17675 0.0121,-0.0542 0.0226,-0.10847 0.0248,-0.12066 l 0.004,-0.0221 h 0.58998 c 0.61061,0 0.74915,0.004 0.86298,0.0274 0.15969,0.0323 0.26203,0.12775 0.30232,0.28194 0.012,0.0461 0.0151,0.18103 0.004,0.24133 -0.0154,0.0911 -0.043,0.17747 -0.0768,0.23792 -0.0631,0.11343 -0.13257,0.17732 -0.26833,0.24652 -0.0848,0.0432 -0.1306,0.0584 -0.24195,0.0802 -0.0439,0.009 -0.0798,0.0176 -0.0798,0.0203 0,0.003 0.0319,0.009 0.0709,0.012 0.1954,0.022 0.28215,0.0809 0.31645,0.21481 0.0121,0.0467 0.009,0.23464 -0.004,0.38748 -0.007,0.0776 -0.012,0.19005 -0.012,0.30759 l -3.5e-4,0.18525 h -0.3314 -0.33143 l 3e-5,-0.0901 c 2e-5,-0.0495 0.004,-0.13753 0.0105,-0.19544 0.006,-0.058 0.0151,-0.15278 0.0208,-0.21073 0.0151,-0.15288 0.0152,-0.24822 3.7e-4,-0.2821 -0.0184,-0.0421 -0.0434,-0.0635 -0.0925,-0.0793 -0.0392,-0.012 -0.0655,-0.0151 -0.22003,-0.0176 -0.0967,-0.002 -0.17829,-5.3e-4 -0.18157,0.003 -0.004,0.004 -0.0377,0.15378 -0.15311,0.70263 -0.0169,0.0804 -0.0324,0.15151 -0.0343,0.15805 -0.003,0.0105 -0.0241,0.012 -0.31241,0.012 -0.16987,0 -0.30884,-0.002 -0.30884,-0.003 z m 1.34926,-1.28478 c 0.0702,-0.0151 0.11283,-0.0386 0.1579,-0.0878 0.0485,-0.053 0.0811,-0.11675 0.0946,-0.18583 0.022,-0.11147 -0.006,-0.18807 -0.0824,-0.22757 -0.06,-0.0309 -0.0854,-0.0341 -0.30391,-0.0374 l -0.20874,-0.003 -0.004,0.016 c -0.002,0.009 -0.0136,0.0664 -0.027,0.12805 -0.0374,0.18139 -0.078,0.37608 -0.082,0.39257 l -0.003,0.0152 0.20576,-1.3e-4 c 0.15531,-7e-5 0.21741,-0.003 0.25323,-0.0105 z m 1.71872,1.26627 c 0.002,-0.012 0.0136,-0.0649 0.0241,-0.11735 0.0105,-0.0524 0.0586,-0.27872 0.10575,-0.50305 0.0472,-0.22432 0.0902,-0.42774 0.0958,-0.45205 0.0221,-0.096 0.14612,-0.69035 0.14612,-0.70053 0,-0.004 -0.1288,-0.006 -0.33649,-0.006 -0.27981,0 -0.3365,-0.002 -0.3365,-0.009 0,-0.009 0.0795,-0.39994 0.0857,-0.42069 0.003,-0.0105 0.057,-0.012 1.00239,-0.012 0.54936,0 0.99883,9e-4 0.99883,0.002 0,9e-4 -0.0199,0.0981 -0.0441,0.21533 -0.0243,0.11721 -0.0441,0.21563 -0.0441,0.21872 0,0.003 -0.15703,0.006 -0.34893,0.006 h -0.34893 l -0.007,0.0357 c -0.009,0.0361 -0.15768,0.74231 -0.20447,0.96702 -0.007,0.0336 -0.024,0.11313 -0.0375,0.17675 -0.0136,0.0635 -0.0337,0.15838 -0.0446,0.21073 -0.0105,0.0524 -0.0279,0.13347 -0.0377,0.18013 -0.0105,0.0467 -0.0245,0.11706 -0.0325,0.15636 l -0.0151,0.0714 -0.3119,0.002 -0.3119,0.002 z m 4.76634,0.007 c 0.002,-0.009 0.007,-0.0368 0.0136,-0.063 0.006,-0.0263 0.0347,-0.16537 0.0653,-0.30932 0.0305,-0.14401 0.064,-0.30301 0.0746,-0.35349 0.0742,-0.35539 0.19165,-0.91277 0.19776,-0.9381 0.004,-0.0169 0.0151,-0.0658 0.0232,-0.10876 0.0301,-0.14838 0.0917,-0.43848 0.0949,-0.44697 0.003,-0.006 0.12699,-0.009 0.59089,-0.009 0.60828,0 0.74693,0.004 0.86068,0.0274 0.26248,0.053 0.37002,0.27884 0.28904,0.607 -0.0309,0.12504 -0.10741,0.25342 -0.18811,0.31541 -0.11569,0.0889 -0.24723,0.14342 -0.41532,0.17222 -0.0254,0.005 -0.0459,0.0105 -0.0459,0.0136 0,0.003 0.0207,0.007 0.0459,0.0105 0.12593,0.012 0.19552,0.0333 0.25263,0.0753 0.033,0.0243 0.0446,0.0384 0.0646,0.0794 0.0414,0.084 0.0444,0.15545 0.0194,0.45081 -0.006,0.0733 -0.0105,0.2078 -0.012,0.311 l -6e-4,0.18184 h -0.33139 -0.3314 v -0.0833 c 0,-0.0458 0.006,-0.14597 0.0136,-0.22263 0.0394,-0.40164 0.0398,-0.45237 0.003,-0.50056 -0.0426,-0.0559 -0.0776,-0.064 -0.29763,-0.0686 -0.0975,-0.002 -0.17815,-9e-4 -0.18139,0.003 -0.003,0.003 -0.012,0.0366 -0.0196,0.074 -0.007,0.0374 -0.0214,0.10318 -0.0306,0.14612 -0.0687,0.32151 -0.10334,0.48465 -0.11885,0.56083 l -0.0181,0.0884 -0.31102,0.002 -0.31101,0.002 z m 1.34606,-1.27306 c 0.0684,-0.0151 0.11252,-0.0386 0.15527,-0.0849 0.0488,-0.0528 0.0765,-0.10244 0.0931,-0.16708 0.0378,-0.14808 -0.006,-0.23415 -0.1395,-0.27339 -0.0253,-0.007 -0.0869,-0.0105 -0.2421,-0.0136 l -0.20813,-0.003 -0.004,0.016 c -0.005,0.0199 -0.0504,0.23808 -0.0854,0.40858 l -0.0262,0.12744 0.20471,-1.3e-4 c 0.15434,-8e-5 0.21635,-0.003 0.25216,-0.0105 z m 1.30996,1.09967 c 0.0218,-0.10379 0.0626,-0.29725 0.0905,-0.42999 0.0437,-0.20789 0.11358,-0.53852 0.18757,-0.88712 0.0105,-0.0524 0.0294,-0.13949 0.0405,-0.19374 0.0105,-0.0542 0.0412,-0.19645 0.0666,-0.3161 l 0.0461,-0.21753 0.83738,-0.002 c 0.46057,-8.9e-4 0.83739,-8.9e-4 0.83739,3.5e-4 0,9e-4 -0.0105,0.0539 -0.0241,0.11735 -0.0136,0.0634 -0.0318,0.15352 -0.0412,0.20024 -0.009,0.0467 -0.0187,0.0904 -0.0207,0.0969 -0.003,0.0105 -0.0348,0.012 -0.53541,0.012 h -0.53185 l -0.0216,0.10365 c -0.012,0.057 -0.0339,0.16116 -0.049,0.23139 -0.0151,0.0702 -0.0274,0.1291 -0.0274,0.13092 0,0.002 0.22484,0.003 0.49965,0.003 0.2748,0 0.49962,0.003 0.4996,0.005 -3e-5,0.003 -0.012,0.0617 -0.0274,0.1309 -0.0151,0.0691 -0.0354,0.16323 -0.0452,0.20902 l -0.0178,0.0833 h -0.50066 -0.50063 l -0.0151,0.0697 c -0.0199,0.0926 -0.074,0.35534 -0.0797,0.38748 l -0.004,0.0254 h 0.54505 0.54504 l -0.004,0.0151 c -0.003,0.007 -0.0236,0.10363 -0.0464,0.21243 l -0.0419,0.1979 -0.85015,0.002 -0.85015,0.002 z M 7.0523666,130.01245 c -0.0105,-0.0537 -0.0316,-0.17239 -0.0483,-0.26397 -0.0167,-0.0916 -0.035,-0.19103 -0.0405,-0.22093 -0.0151,-0.0782 -0.0747,-0.3999 -0.10228,-0.54723 -0.0136,-0.0691 -0.0314,-0.16706 -0.041,-0.21754 -0.009,-0.0505 -0.0216,-0.11464 -0.0268,-0.14281 -0.004,-0.028 -0.0369,-0.19629 -0.0706,-0.37389 -0.0338,-0.17758 -0.0657,-0.34736 -0.0711,-0.37728 -0.012,-0.0697 -0.0961,-0.52103 -0.10892,-0.588 -0.006,-0.028 -0.009,-0.0523 -0.007,-0.0538 0.005,-0.004 0.16696,0.0731 0.27129,0.12895 0.16666,0.0895 0.397258,0.24495 0.519938,0.35058 0.11976,0.10305 0.24874,0.23026 0.33353,0.32872 0.0241,0.028 0.0457,0.0526 0.0477,0.0544 0.002,0.002 0.0225,0.0268 0.045,0.0555 0.10062,0.12729 0.22934,0.31865 0.29295,0.43529 l 0.0285,0.0523 -0.0696,0.10168 c -0.0383,0.0559 -0.19656,0.29193 -0.3517,0.52454 -0.15516,0.23259 -0.29894,0.447 -0.31951,0.47645 -0.0205,0.0295 -0.0633,0.0911 -0.0948,0.13708 -0.0635,0.0922 -0.155728,0.22306 -0.163658,0.23188 -0.003,0.003 -0.0136,-0.0383 -0.023,-0.0917 z m -4.69263,-1.08862 c 0.0893,-0.23278 0.27022,-0.53936 0.45462,-0.77053 0.21299,-0.26697 0.39489,-0.43568 0.69731,-0.64673 0.0829,-0.0579 0.25719,-0.1635 0.27862,-0.16891 0.0105,-0.003 0.0271,0.004 0.0577,0.0263 0.0235,0.0165 0.0633,0.0445 0.0885,0.0619 0.0253,0.0173 0.0666,0.0459 0.0917,0.0634 0.0253,0.0174 0.0688,0.0476 0.0969,0.0667 0.10062,0.069 0.16743,0.11494 0.22092,0.15189 0.0298,0.0207 0.0835,0.0573 0.11901,0.0815 0.0355,0.0243 0.0875,0.0598 0.11554,0.0793 0.028,0.0194 0.08,0.0552 0.11554,0.0794 0.45938,0.31433 0.58491,0.40227 0.58011,0.40642 -0.003,0.003 -0.0408,0.012 -0.0839,0.0198 -0.0678,0.0136 -0.30783,0.0604 -1.43095,0.28304 -0.1196,0.0236 -0.34448,0.0681 -0.49964,0.0985 -0.15516,0.0305 -0.33411,0.0657 -0.39768,0.0782 -0.0635,0.012 -0.19815,0.0386 -0.29909,0.0577 -0.10093,0.0191 -0.18936,0.0366 -0.19647,0.0387 -0.009,0.003 -0.0121,9e-4 -0.009,-0.006 z m 4.14133,-0.10892 c -0.0395,-0.028 -0.1392,-0.0964 -0.34872,-0.23929 -0.30209,-0.20597 -0.5303,-0.36136 -0.71853,-0.48931 -0.086,-0.0584 -0.21978,-0.14958 -0.29729,-0.20267 -0.0776,-0.053 -0.16775,-0.11479 -0.20054,-0.13723 -0.057,-0.0388 -0.57455,-0.39683 -0.60467,-0.41809 -0.007,-0.006 -0.056,-0.0394 -0.1068,-0.0747 -0.0508,-0.0355 -0.0923,-0.0666 -0.0925,-0.0691 -6e-5,-0.0105 0.22203,-0.0842 0.35346,-0.11765 0.26004,-0.0661 0.55813,-0.1056 0.79536,-0.10545 0.29367,1.1e-4 0.68619,0.0577 0.88843,0.13046 l 0.0557,0.02 0.007,0.0351 c 0.007,0.0372 0.0463,0.23831 0.0851,0.44304 0.0136,0.0673 0.0389,0.2065 0.0579,0.30931 0.0564,0.30398 0.11117,0.59354 0.15019,0.79233 0.0285,0.14522 0.0295,0.15271 0.0217,0.15236 -0.003,-1.4e-4 -0.0236,-0.0136 -0.0459,-0.0292 z"
           id="path36-2-3" /><g
           id="g539"
           transform="translate(264.55222,54.132345)"><g
             id="g536"
             style="opacity:0.5;filter:url(#filter536)"><rect
               style="fill:#ea988c;fill-opacity:1;stroke:none;stroke-width:0.396875;stroke-linecap:round;stroke-linejoin:round;stroke-dasharray:none;stroke-dashoffset:0"
               id="rect526-73-3"
               width="19.049999"
               height="19.049999"
               x="146.01889"
               y="3.6288979"
               rx="0.79374993"
               ry="0.79374993"
               transform="scale(-1,1)" /><rect
               style="fill:#e17369;fill-opacity:1;stroke:none;stroke-width:0.396875;stroke-linecap:round;stroke-linejoin:round;stroke-dasharray:none;stroke-dashoffset:0"
               id="rect526-2-0-9"
               width="19.049999"
               height="19.049999"
               x="166.6564"
               y="3.6288979"
               rx="0.79374993"
               ry="0.79374993"
               transform="scale(-1,1)" /><rect
               style="fill:#d74e46;fill-opacity:1;stroke:none;stroke-width:0.396875;stroke-linecap:round;stroke-linejoin:round;stroke-dasharray:none;stroke-dashoffset:0"
               id="rect526-6-0-9"
               width="19.049999"
               height="19.049999"
               x="187.2939"
               y="3.6288979"
               rx="0.79374993"
               ry="0.79374993"
               transform="scale(-1,1)" /><rect
               style="fill:#cd2923;fill-opacity:1;stroke:none;stroke-width:0.396875;stroke-linecap:round;stroke-linejoin:round;stroke-dasharray:none;stroke-dashoffset:0"
               id="rect526-5-4-5"
               width="19.049999"
               height="19.049999"
               x="207.9314"
               y="3.6288979"
               rx="0.79374993"
               ry="0.79374993"
               transform="scale(-1,1)" /><rect
               style="fill:#c40301;fill-opacity:1;stroke:none;stroke-width:0.396875;stroke-linecap:round;stroke-linejoin:round;stroke-dasharray:none;stroke-dashoffset:0"
               id="rect526-9-83-9"
               width="19.049999"
               height="19.049999"
               x="228.56889"
               y="3.6288979"
               rx="0.79374993"
               ry="0.79374993"
               transform="scale(-1,1)" /><rect
               style="fill:#e0e2aa;fill-opacity:1;stroke:none;stroke-width:0.396875;stroke-linecap:round;stroke-linejoin:round;stroke-dasharray:none;stroke-dashoffset:0"
               id="rect526-63-1-2"
               width="19.049999"
               height="19.049999"
               x="146.01889"
               y="24.266386"
               rx="0.79374993"
               ry="0.79374993"
               transform="scale(-1,1)" /><rect
               style="fill:#bfc76c;fill-opacity:1;stroke:none;stroke-width:0.396875;stroke-linecap:round;stroke-linejoin:round;stroke-dasharray:none;stroke-dashoffset:0"
               id="rect526-2-4-2-6"
               width="19.049999"
               height="19.049999"
               x="166.6564"
               y="24.266386"
               rx="0.79374993"
               ry="0.79374993"
               transform="scale(-1,1)" /><rect
               style="fill:#9ead2f;fill-opacity:1;stroke:none;stroke-width:0.396875;stroke-linecap:round;stroke-linejoin:round;stroke-dasharray:none;stroke-dashoffset:0"
               id="rect526-6-2-9-5"
               width="19.049999"
               height="19.049999"
               x="187.2939"
               y="24.266386"
               rx="0.79374993"
               ry="0.79374993"
               transform="scale(-1,1)" /><rect
               style="fill:#7d9321;fill-opacity:1;stroke:none;stroke-width:0.396875;stroke-linecap:round;stroke-linejoin:round;stroke-dasharray:none;stroke-dashoffset:0"
               id="rect526-5-8-0-3"
               width="19.049999"
               height="19.049999"
               x="207.9314"
               y="24.266386"
               rx="0.79374993"
               ry="0.79374993"
               transform="scale(-1,1)" /><rect
               style="fill:#5d7912;fill-opacity:1;stroke:none;stroke-width:0.396875;stroke-linecap:round;stroke-linejoin:round;stroke-dasharray:none;stroke-dashoffset:0"
               id="rect526-9-8-3-2"
               width="19.049999"
               height="19.049999"
               x="228.56889"
               y="24.266386"
               rx="0.79374993"
               ry="0.79374993"
               transform="scale(-1,1)" /><rect
               style="fill:#acefdd;fill-opacity:1;stroke:none;stroke-width:0.396875;stroke-linecap:round;stroke-linejoin:round;stroke-dasharray:none;stroke-dashoffset:0"
               id="rect526-7-8-4"
               width="19.049999"
               height="19.049999"
               x="146.01889"
               y="44.9039"
               rx="0.79374993"
               ry="0.79374993"
               transform="scale(-1,1)" /><rect
               style="fill:#86c8bd;fill-opacity:1;stroke:none;stroke-width:0.396875;stroke-linecap:round;stroke-linejoin:round;stroke-dasharray:none;stroke-dashoffset:0"
               id="rect526-2-8-5-4"
               width="19.049999"
               height="19.049999"
               x="166.6564"
               y="44.9039"
               rx="0.79374993"
               ry="0.79374993"
               transform="scale(-1,1)" /><rect
               style="fill:#61a19e;fill-opacity:1;stroke:none;stroke-width:0.396875;stroke-linecap:round;stroke-linejoin:round;stroke-dasharray:none;stroke-dashoffset:0"
               id="rect526-6-7-7-4"
               width="19.049999"
               height="19.049999"
               x="187.2939"
               y="44.9039"
               rx="0.79374993"
               ry="0.79374993"
               transform="scale(-1,1)" /><rect
               style="fill:#4d8a7f;fill-opacity:1;stroke:none;stroke-width:0.396875;stroke-linecap:round;stroke-linejoin:round;stroke-dasharray:none;stroke-dashoffset:0"
               id="rect526-5-3-7-2"
               width="19.049999"
               height="19.049999"
               x="207.9314"
               y="44.9039"
               rx="0.79374993"
               ry="0.79374993"
               transform="scale(-1,1)" /><rect
               style="fill:#397261;fill-opacity:1;stroke:none;stroke-width:0.396875;stroke-linecap:round;stroke-linejoin:round;stroke-dasharray:none;stroke-dashoffset:0"
               id="rect526-9-0-0-7"
               width="19.049999"
               height="19.049999"
               x="228.56889"
               y="44.9039"
               rx="0.79374993"
               ry="0.79374993"
               transform="scale(-1,1)" /></g><g
             id="g537"
             transform="translate(-22.127744,92.065878)"><rect
               style="fill:#ea988c;fill-opacity:1;stroke:#ffffff;stroke-width:0.396875;stroke-linecap:round;stroke-linejoin:round;stroke-dasharray:none;stroke-dashoffset:0"
               id="rect526-73-31"
               width="19.049999"
               height="19.049999"
               x="123.89114"
               y="-88.436981"
               rx="0.79374993"
               ry="0.79374993"
               transform="scale(-1,1)" /><rect
               style="fill:#e17369;fill-opacity:1;stroke:#ffffff;stroke-width:0.396875;stroke-linecap:round;stroke-linejoin:round;stroke-dasharray:none;stroke-dashoffset:0"
               id="rect526-2-0-5"
               width="19.049999"
               height="19.049999"
               x="144.52866"
               y="-88.436981"
               rx="0.79374993"
               ry="0.79374993"
               transform="scale(-1,1)" /><rect
               style="fill:#d74e46;fill-opacity:1;stroke:#ffffff;stroke-width:0.396875;stroke-linecap:round;stroke-linejoin:round;stroke-dasharray:none;stroke-dashoffset:0"
               id="rect526-6-0-7"
               width="19.049999"
               height="19.049999"
               x="165.16615"
               y="-88.436981"
               rx="0.79374993"
               ry="0.79374993"
               transform="scale(-1,1)" /><rect
               style="fill:#cd2923;fill-opacity:1;stroke:#ffffff;stroke-width:0.396875;stroke-linecap:round;stroke-linejoin:round;stroke-dasharray:none;stroke-dashoffset:0"
               id="rect526-5-4-8"
               width="19.049999"
               height="19.049999"
               x="185.80365"
               y="-88.436981"
               rx="0.79374993"
               ry="0.79374993"
               transform="scale(-1,1)" /><rect
               style="fill:#c40301;fill-opacity:1;stroke:#ffffff;stroke-width:0.396875;stroke-linecap:round;stroke-linejoin:round;stroke-dasharray:none;stroke-dashoffset:0"
               id="rect526-9-83-5"
               width="19.049999"
               height="19.049999"
               x="206.44115"
               y="-88.436981"
               rx="0.79374993"
               ry="0.79374993"
               transform="scale(-1,1)" /><rect
               style="fill:#e0e2aa;fill-opacity:1;stroke:#ffffff;stroke-width:0.396875;stroke-linecap:round;stroke-linejoin:round;stroke-dasharray:none;stroke-dashoffset:0"
               id="rect526-63-1-8"
               width="19.049999"
               height="19.049999"
               x="123.89114"
               y="-67.799492"
               rx="0.79374993"
               ry="0.79374993"
               transform="scale(-1,1)" /><rect
               style="fill:#bfc76c;fill-opacity:1;stroke:#ffffff;stroke-width:0.396875;stroke-linecap:round;stroke-linejoin:round;stroke-dasharray:none;stroke-dashoffset:0"
               id="rect526-2-4-2-3"
               width="19.049999"
               height="19.049999"
               x="144.52866"
               y="-67.799492"
               rx="0.79374993"
               ry="0.79374993"
               transform="scale(-1,1)" /><rect
               style="fill:#9ead2f;fill-opacity:1;stroke:#ffffff;stroke-width:0.396875;stroke-linecap:round;stroke-linejoin:round;stroke-dasharray:none;stroke-dashoffset:0"
               id="rect526-6-2-9-2"
               width="19.049999"
               height="19.049999"
               x="165.16615"
               y="-67.799492"
               rx="0.79374993"
               ry="0.79374993"
               transform="scale(-1,1)" /><rect
               style="fill:#7d9321;fill-opacity:1;stroke:#ffffff;stroke-width:0.396875;stroke-linecap:round;stroke-linejoin:round;stroke-dasharray:none;stroke-dashoffset:0"
               id="rect526-5-8-0-4"
               width="19.049999"
               height="19.049999"
               x="185.80365"
               y="-67.799492"
               rx="0.79374993"
               ry="0.79374993"
               transform="scale(-1,1)" /><rect
               style="fill:#5d7912;fill-opacity:1;stroke:#ffffff;stroke-width:0.396875;stroke-linecap:round;stroke-linejoin:round;stroke-dasharray:none;stroke-dashoffset:0"
               id="rect526-9-8-3-1"
               width="19.049999"
               height="19.049999"
               x="206.44115"
               y="-67.799492"
               rx="0.79374993"
               ry="0.79374993"
               transform="scale(-1,1)" /><rect
               style="fill:#acefdd;fill-opacity:1;stroke:#ffffff;stroke-width:0.396875;stroke-linecap:round;stroke-linejoin:round;stroke-dasharray:none;stroke-dashoffset:0"
               id="rect526-7-8-15"
               width="19.049999"
               height="19.049999"
               x="123.89114"
               y="-47.161976"
               rx="0.79374993"
               ry="0.79374993"
               transform="scale(-1,1)" /><rect
               style="fill:#86c8bd;fill-opacity:1;stroke:#ffffff;stroke-width:0.396875;stroke-linecap:round;stroke-linejoin:round;stroke-dasharray:none;stroke-dashoffset:0"
               id="rect526-2-8-5-9"
               width="19.049999"
               height="19.049999"
               x="144.52866"
               y="-47.161976"
               rx="0.79374993"
               ry="0.79374993"
               transform="scale(-1,1)" /><rect
               style="fill:#61a19e;fill-opacity:1;stroke:#ffffff;stroke-width:0.396875;stroke-linecap:round;stroke-linejoin:round;stroke-dasharray:none;stroke-dashoffset:0"
               id="rect526-6-7-7-5"
               width="19.049999"
               height="19.049999"
               x="165.16615"
               y="-47.161976"
               rx="0.79374993"
               ry="0.79374993"
               transform="scale(-1,1)" /><rect
               style="fill:#4d8a7f;fill-opacity:1;stroke:#ffffff;stroke-width:0.396875;stroke-linecap:round;stroke-linejoin:round;stroke-dasharray:none;stroke-dashoffset:0"
               id="rect526-5-3-7-1"
               width="19.049999"
               height="19.049999"
               x="185.80365"
               y="-47.161976"
               rx="0.79374993"
               ry="0.79374993"
               transform="scale(-1,1)" /><rect
               style="fill:#397261;fill-opacity:1;stroke:#ffffff;stroke-width:0.396875;stroke-linecap:round;stroke-linejoin:round;stroke-dasharray:none;stroke-dashoffset:0"
               id="rect526-9-0-0-0"
               width="19.049999"
               height="19.049999"
               x="206.44115"
               y="-47.161976"
               rx="0.79374993"
               ry="0.79374993"
               transform="scale(-1,1)" /></g></g><g
           id="g542"><text
             xml:space="preserve"
             style="font-weight:bold;font-stretch:condensed;font-size:6.61458px;font-family:Univers;-inkscape-font-specification:'Univers Bold Condensed';writing-mode:lr-tb;direction:ltr;fill:#ffffff;stroke-width:0.264583;stroke-linecap:round;stroke-linejoin:round"
             x="23.701309"
             y="18.39056"
             id="text4"><tspan
               sodipodi:role="line"
               id="tspan4"
               style="font-style:italic;font-variant:normal;font-weight:300;font-stretch:normal;font-family:'Segoe UI';-inkscape-font-specification:'Segoe UI Light Italic';stroke-width:0.264583"
               x="23.701309"
               y="18.39056">See the world in a</tspan></text><text
             xml:space="preserve"
             style="font-weight:bold;font-stretch:condensed;font-size:16.7796px;font-family:Univers;-inkscape-font-specification:'Univers Bold Condensed';writing-mode:lr-tb;direction:ltr;fill:#ffffff;stroke-width:0.671181;stroke-linecap:round;stroke-linejoin:round"
             x="22.150665"
             y="34.134098"
             id="text4-9"><tspan
               sodipodi:role="line"
               id="tspan4-6"
               style="font-style:normal;font-variant:normal;font-weight:normal;font-stretch:normal;font-family:'Rage Italic';-inkscape-font-specification:'Rage Italic, ';stroke-width:0.671181"
               x="22.150665"
               y="34.134098">Colorful Array</tspan></text></g></g></g></g></svg>
