<?xml version="1.0" encoding="UTF-8" standalone="no"?>
<!-- Created with Inkscape (http://www.inkscape.org/) -->

<svg
   width="512"
   height="512"
   viewBox="0 0 135.46667 135.46667"
   version="1.1"
   id="svg1"
   inkscape:version="1.4.3 (0d15f75, 2025-12-25)"
   sodipodi:docname="reception-logo.svg"
   xml:space="preserve"
   inkscape:export-filename="reception-logo.png"
   inkscape:export-xdpi="768"
   inkscape:export-ydpi="768"
   xmlns:inkscape="http://www.inkscape.org/namespaces/inkscape"
   xmlns:sodipodi="http://sodipodi.sourceforge.net/DTD/sodipodi-0.dtd"
   xmlns:xlink="http://www.w3.org/1999/xlink"
   xmlns="http://www.w3.org/2000/svg"
   xmlns:svg="http://www.w3.org/2000/svg"><sodipodi:namedview
     id="namedview1"
     pagecolor="#505050"
     bordercolor="#eeeeee"
     borderopacity="1"
     inkscape:showpageshadow="0"
     inkscape:pageopacity="0"
     inkscape:pagecheckerboard="0"
     inkscape:deskcolor="#505050"
     inkscape:document-units="mm"
     inkscape:zoom="1"
     inkscape:cx="220"
     inkscape:cy="200.5"
     inkscape:window-width="1920"
     inkscape:window-height="1009"
     inkscape:window-x="1912"
     inkscape:window-y="-8"
     inkscape:window-maximized="1"
     inkscape:current-layer="layer4"
     inkscape:export-bgcolor="#000000ff"
     showgrid="false" /><defs
     id="defs1"><linearGradient
       id="linearGradient1"
       inkscape:collect="always"><stop
         style="stop-color:#000000;stop-opacity:1;"
         offset="0"
         id="stop1" /><stop
         style="stop-color:#262626;stop-opacity:1;"
         offset="1"
         id="stop2" /></linearGradient><linearGradient
       inkscape:collect="always"
       xlink:href="#linearGradient1"
       id="linearGradient2"
       x1="0"
       y1="135.46666"
       x2="270.93332"
       y2="0"
       gradientUnits="userSpaceOnUse"
       gradientTransform="matrix(0.5,0,0,1,-4.1153972e-6,3.2649739e-7)" /></defs><g
     inkscape:groupmode="layer"
     id="layer2"
     inkscape:label="Background"><rect
       style="fill:url(#linearGradient2);stroke:#ffffff;stroke-width:0.29819;stroke-linecap:round;stroke-linejoin:round"
       id="rect1"
       width="135.46666"
       height="135.46666"
       x="3.5603841e-06"
       y="3.5603841e-06"
       rx="4.2333331"
       ry="4.2333331" /></g><g
     inkscape:groupmode="layer"
     id="layer3"
     inkscape:label="Logo Text" /><g
     inkscape:groupmode="layer"
     id="layer4"
     inkscape:label="Aperture"><path
       style="fill:#ffffff;stroke-width:0.484057"
       d="m 63.516716,127.01058 c -4.796744,-0.43721 -8.630324,-1.1167 -11.937614,-2.11591 l -1.11543,-0.337 -0.13042,-0.6538 c -0.0717,-0.35959 -0.42196,-2.32516 -0.77829,-4.36793 -0.81405,-4.66686 -1.26816,-7.16121 -3.34237,-18.35882 -0.91788,-4.955181 -1.64488,-9.033421 -1.61556,-9.062751 0.074,-0.074 27.088415,18.062651 35.377124,23.751221 5.241862,3.59751 10.065603,6.96715 10.026795,7.00426 -0.02035,0.0195 -0.930371,0.35264 -2.022206,0.7403 -4.750968,1.68691 -10.035473,2.83498 -15.426366,3.35141 -2.198535,0.21063 -6.978217,0.23656 -9.035663,0.049 z m -21.452294,-5.72631 c -6.01859,-2.94641 -10.18827,-5.79397 -15.05272,-10.27981 -3.84777,-3.54829 -8.43201,-9.36603 -10.94309,-13.887611 l -0.35909,-0.64658 1.68293,-2.61928 c 0.9256,-1.44061 5.18408,-7.90044 9.46332,-14.35519 5.6004,-8.44761 7.80596,-11.67726 7.87167,-11.52661 0.24945,0.57191 10.01507,54.047931 9.93522,54.404761 -0.0242,0.10831 -0.91027,-0.26332 -2.59824,-1.08968 z m 46.233741,-6.13879 c -4.085979,-2.7274 -8.149105,-5.45414 -9.029183,-6.05942 -0.880079,-0.60528 -3.185047,-2.18553 -5.122165,-3.51167 -4.393035,-3.00745 -6.323345,-4.42436 -6.188186,-4.54232 0.05754,-0.0503 2.323577,-0.50482 5.03552,-1.01017 6.496622,-1.210591 21.269976,-4.057791 36.885141,-7.108721 6.93838,-1.35563 12.63219,-2.42501 12.65291,-2.3764 0.0207,0.0487 -0.31846,0.85884 -0.75371,1.80047 -5.22585,11.305941 -13.26143,20.195631 -24.220685,26.795061 -0.895037,0.53898 -1.67308,0.97817 -1.728975,0.97601 -0.05591,-0.001 -3.444699,-2.23545 -7.530667,-4.96284 z m 3.010485,-24.053441 c 0,-0.0416 1.114805,-1.72738 2.477344,-3.74617 1.362539,-2.01878 5.578672,-8.28115 9.369188,-13.91638 7.70785,-11.45905 10.47515,-15.54261 14.58094,-21.51634 4.1336,-6.01425 4.72238,-6.85193 4.81591,-6.85193 0.0465,0 0.37867,0.79245 0.73802,1.76101 2.30979,6.22572 3.5821,12.73244 3.83787,19.62725 0.16034,4.322 -0.60366,10.92415 -1.82812,15.79791 -0.24511,0.97563 -0.51837,1.95203 -0.60721,2.16979 l -0.16156,0.39591 -4.02798,0.74838 c -2.21539,0.41161 -9.65623,1.84139 -16.5352,3.17728 -6.878973,1.3359 -12.541423,2.42891 -12.583213,2.42891 -0.04175,0 -0.07602,-0.034 -0.07602,-0.0757 z m -78.993596,-1.92961 c -2.5689902,-6.60227 -3.9988702,-14.21865 -3.9974802,-21.29269 8.7e-4,-5.07304 0.82278,-11.26587 2.0749402,-15.6364 l 0.42197,-1.47286 2.81762,-0.54958 c 1.54969,-0.30226 6.9672,-1.35857 12.03892,-2.34734 5.07169,-0.98877 11.20962,-2.18687 13.63982,-2.66244 2.43019,-0.47556 4.43828,-0.84995 4.46242,-0.83195 0.067,0.0499 -30.41172,46.03166 -30.70866,46.32859 -0.0607,0.0607 -0.39512,-0.62445 -0.74955,-1.53533 z m 88.727178,-22.39091 c 0,-0.22227 -2.333899,-12.7606 -4.804051,-25.80865 -3.582174,-18.922062 -5.188972,-27.575195 -5.131136,-27.63302 0.07135,-0.07135 1.656542,0.634462 3.541238,1.576763 8.025469,4.012493 14.927029,9.762044 20.284999,16.898987 1.75931,2.34346 4.84461,7.15278 4.84897,7.5585 8.7e-4,0.0716 -0.57549,0.96494 -1.28057,1.98513 -0.70508,1.02021 -3.70042,5.45699 -6.65631,9.85951 -5.43734,8.09842 -6.64234,9.86348 -9.18073,13.44772 -1.53776,2.17133 -1.62241,2.28168 -1.62241,2.11506 z M 12.997162,44.659909 c 0.38648,-1.21771 2.28966,-5.00868 3.68848,-7.34714 5.31105,-8.878709 12.97956,-16.397715 21.70074,-21.27769 l 1.46064,-0.817306 4.82283,3.312019 c 2.65255,1.821619 8.19436,5.606614 12.315121,8.411096 4.120764,2.804494 8.209455,5.591341 9.085989,6.193001 l 1.593687,1.09394 -1.785806,0.35157 c -0.982184,0.19339 -7.232112,1.42426 -13.888731,2.7353 -21.07911,4.1516 -26.81194,5.27444 -32.65874,6.39659 -3.13459,0.60162 -5.86351,1.12848 -6.06422,1.17083 -0.33606,0.0709 -0.35744,0.0533 -0.26999,-0.22221 z m 75.173702,-3.4031 c -1.690577,-1.1627 -7.425063,-5.05748 -12.743312,-8.65507 C 61.685193,23.305602 56.010836,19.425742 48.178472,13.970053 l -2.21071,-1.539885 1.44227,-0.511373 c 5.34911,-1.896603 10.9301,-3.0287894 17.25935,-3.5013314 5.694053,-0.425127 15.176527,0.74796 19.85684,2.4565144 l 0.709843,0.259125 0.670848,3.484325 c 0.368951,1.916369 1.503815,7.893243 2.521895,13.281937 1.018103,5.388694 2.101669,11.079964 2.40794,12.647264 0.306272,1.5673 0.523339,2.84391 0.482356,2.83692 -0.04094,-0.007 -1.457686,-0.96403 -3.14824,-2.12674 z"
       id="path1" /></g><g
     inkscape:groupmode="layer"
     id="layer1"
     inkscape:label="Aperture Overlay" /></svg>
