<?xml version="1.0" encoding="UTF-8" standalone="no"?>
<!-- Created with Inkscape (http://www.inkscape.org/) -->

<svg
   width="128"
   height="192"
   viewBox="0 0 33.866666 50.8"
   version="1.1"
   id="svg1"
   inkscape:version="1.4.3 (0d15f75, 2025-12-25)"
   sodipodi:docname="door_power_monitor_signs.svg"
   xml:space="preserve"
   xmlns:inkscape="http://www.inkscape.org/namespaces/inkscape"
   xmlns:sodipodi="http://sodipodi.sourceforge.net/DTD/sodipodi-0.dtd"
   xmlns:xlink="http://www.w3.org/1999/xlink"
   xmlns="http://www.w3.org/2000/svg"
   xmlns:svg="http://www.w3.org/2000/svg"><sodipodi:namedview
     id="namedview1"
     pagecolor="#505050"
     bordercolor="#eeeeee"
     borderopacity="1"
     inkscape:showpageshadow="0"
     inkscape:pageopacity="0"
     inkscape:pagecheckerboard="0"
     inkscape:deskcolor="#505050"
     inkscape:document-units="mm"
     inkscape:zoom="2.8284271"
     inkscape:cx="34.294679"
     inkscape:cy="104.47503"
     inkscape:window-width="1920"
     inkscape:window-height="1009"
     inkscape:window-x="1912"
     inkscape:window-y="-8"
     inkscape:window-maximized="1"
     inkscape:current-layer="layer4" /><defs
     id="defs1"><pattern
       inkscape:collect="always"
       xlink:href="#Cubes"
       preserveAspectRatio="none"
       id="pattern26"
       patternTransform="matrix(0.1,0,0,0.1,6.883716e-7,-16.933332)"
       x="0"
       y="0" /><pattern
       patternUnits="userSpaceOnUse"
       width="142"
       height="123"
       patternTransform="scale(0.4)"
       id="Cubes"
       preserveAspectRatio="none"
       style="fill:#1a1a1a"
       x="0"
       y="0"
       inkscape:label="Cubes"
       inkscape:collect="always"
       inkscape:isstock="true"><path
         id="path14"
         style="fill-opacity:0.6;stroke-width:2;stroke-miterlimit:10"
         d="M 0.00195313,0.001953 V 0.0039061 L 35.509766,20.503906 71.009766,0.0078124 106.50977,20.503906 142,0.0136718 V 0.001953 Z" /><path
         id="path16"
         style="fill-opacity:0.3;stroke-width:2;stroke-miterlimit:10"
         d="m 35.503902,61.5 0.0039,0.002 v 41 L 0,123.00195 V 81.998047 Z M 142.01171,0 l 0.004,0.002 v 41 l -35.5079,20.499953 V 20.498047 Z m -71.000002,0 0.0039,0.002 v 41 L 35.507806,61.501953 V 20.498047 Z m 35.492192,61.5 0.004,0.002 v 41 L 71,123.00195 V 81.998047 Z" /><path
         id="path18"
         style="fill-opacity:1;stroke-width:2;stroke-miterlimit:10"
         d="m 106.49609,61.5 -0.004,0.002 v 41 L 142,123.00195 V 81.998047 Z M 71.0039,0 71,0.002 v 41 l 35.50781,20.499953 V 20.498047 Z m -71,0 L 0,0.002 v 41 L 35.507806,61.501953 V 20.498047 Z m 35.492194,61.5 -0.0039,0.002 v 41 L 71,123.00195 V 81.998047 Z" /><path
         id="path20"
         style="fill-opacity:0.6;stroke-width:2;stroke-miterlimit:10"
         d="m 70.998047,41.001953 -35.5,20.496094 L 0,41.003906 v 40.998047 l 0.00195313,0.002 35.49999987,-20.496094 35.5,20.496094 L 106.50195,61.507812 142,82.001953 V 41.003906 l -0.002,-0.002 -35.5,20.496094 z" /><path
         id="path26"
         style="fill-opacity:0.6;stroke-width:2;stroke-miterlimit:10"
         d="M 35.505859,102.50195 0.00195313,123 v 0.002 H 142 v -0.008 l -35.49414,-20.49219 -35.500001,20.49609 z" /></pattern><clipPath
       clipPathUnits="userSpaceOnUse"
       id="clipPath23"><path
         id="path23"
         style="stroke-width:0.1;stroke-linecap:square;paint-order:markers fill stroke;stop-color:#000000"
         d="M 438.25066,553.76374 H 1298.1212 V 755.15928 H 438.25066 Z"
         sodipodi:nodetypes="ccccc" /></clipPath><clipPath
       clipPathUnits="userSpaceOnUse"
       id="clipPath5"><path
         id="path5"
         style="stroke-width:0.1;stroke-linecap:square;paint-order:markers fill stroke;stop-color:#000000"
         d="M 438.25066,553.76374 H 1298.1212 V 755.15928 H 438.25066 Z"
         sodipodi:nodetypes="ccccc" /></clipPath><pattern
       inkscape:collect="always"
       xlink:href="#Cubes-3"
       preserveAspectRatio="none"
       id="pattern26-9"
       patternTransform="matrix(0.1,0,0,0.1,-41.275001,-15.187025)"
       x="0"
       y="0" /><pattern
       patternUnits="userSpaceOnUse"
       width="142"
       height="123"
       patternTransform="scale(0.4)"
       id="Cubes-3"
       preserveAspectRatio="none"
       style="fill:#1a1a1a"
       x="0"
       y="0"
       inkscape:label="Cubes"
       inkscape:collect="always"
       inkscape:isstock="true"><path
         id="path14-1"
         style="fill-opacity:0.6;stroke-width:2;stroke-miterlimit:10"
         d="M 0.00195313,0.001953 V 0.0039061 L 35.509766,20.503906 71.009766,0.0078124 106.50977,20.503906 142,0.0136718 V 0.001953 Z" /><path
         id="path16-9"
         style="fill-opacity:0.3;stroke-width:2;stroke-miterlimit:10"
         d="m 35.503902,61.5 0.0039,0.002 v 41 L 0,123.00195 V 81.998047 Z M 142.01171,0 l 0.004,0.002 v 41 l -35.5079,20.499953 V 20.498047 Z m -71.000002,0 0.0039,0.002 v 41 L 35.507806,61.501953 V 20.498047 Z m 35.492192,61.5 0.004,0.002 v 41 L 71,123.00195 V 81.998047 Z" /><path
         id="path18-8"
         style="fill-opacity:1;stroke-width:2;stroke-miterlimit:10"
         d="m 106.49609,61.5 -0.004,0.002 v 41 L 142,123.00195 V 81.998047 Z M 71.0039,0 71,0.002 v 41 l 35.50781,20.499953 V 20.498047 Z m -71,0 L 0,0.002 v 41 L 35.507806,61.501953 V 20.498047 Z m 35.492194,61.5 -0.0039,0.002 v 41 L 71,123.00195 V 81.998047 Z" /><path
         id="path20-6"
         style="fill-opacity:0.6;stroke-width:2;stroke-miterlimit:10"
         d="m 70.998047,41.001953 -35.5,20.496094 L 0,41.003906 v 40.998047 l 0.00195313,0.002 35.49999987,-20.496094 35.5,20.496094 L 106.50195,61.507812 142,82.001953 V 41.003906 l -0.002,-0.002 -35.5,20.496094 z" /><path
         id="path26-5"
         style="fill-opacity:0.6;stroke-width:2;stroke-miterlimit:10"
         d="M 35.505859,102.50195 0.00195313,123 v 0.002 H 142 v -0.008 l -35.49414,-20.49219 -35.500001,20.49609 z" /></pattern><pattern
       inkscape:collect="always"
       xlink:href="#Cubes-6"
       preserveAspectRatio="none"
       id="pattern26-0"
       patternTransform="matrix(0.1,0,0,0.1,-33.072917,6.905684)"
       x="0"
       y="0" /><pattern
       patternUnits="userSpaceOnUse"
       width="142"
       height="123"
       patternTransform="scale(0.4)"
       id="Cubes-6"
       preserveAspectRatio="none"
       style="fill:#1a1a1a"
       x="0"
       y="0"
       inkscape:label="Cubes"
       inkscape:collect="always"
       inkscape:isstock="true"><path
         id="path14-13"
         style="fill-opacity:0.6;stroke-width:2;stroke-miterlimit:10"
         d="M 0.00195313,0.001953 V 0.0039061 L 35.509766,20.503906 71.009766,0.0078124 106.50977,20.503906 142,0.0136718 V 0.001953 Z" /><path
         id="path16-8"
         style="fill-opacity:0.3;stroke-width:2;stroke-miterlimit:10"
         d="m 35.503902,61.5 0.0039,0.002 v 41 L 0,123.00195 V 81.998047 Z M 142.01171,0 l 0.004,0.002 v 41 l -35.5079,20.499953 V 20.498047 Z m -71.000002,0 0.0039,0.002 v 41 L 35.507806,61.501953 V 20.498047 Z m 35.492192,61.5 0.004,0.002 v 41 L 71,123.00195 V 81.998047 Z" /><path
         id="path18-9"
         style="fill-opacity:1;stroke-width:2;stroke-miterlimit:10"
         d="m 106.49609,61.5 -0.004,0.002 v 41 L 142,123.00195 V 81.998047 Z M 71.0039,0 71,0.002 v 41 l 35.50781,20.499953 V 20.498047 Z m -71,0 L 0,0.002 v 41 L 35.507806,61.501953 V 20.498047 Z m 35.492194,61.5 -0.0039,0.002 v 41 L 71,123.00195 V 81.998047 Z" /><path
         id="path20-3"
         style="fill-opacity:0.6;stroke-width:2;stroke-miterlimit:10"
         d="m 70.998047,41.001953 -35.5,20.496094 L 0,41.003906 v 40.998047 l 0.00195313,0.002 35.49999987,-20.496094 35.5,20.496094 L 106.50195,61.507812 142,82.001953 V 41.003906 l -0.002,-0.002 -35.5,20.496094 z" /><path
         id="path26-4"
         style="fill-opacity:0.6;stroke-width:2;stroke-miterlimit:10"
         d="M 35.505859,102.50195 0.00195313,123 v 0.002 H 142 v -0.008 l -35.49414,-20.49219 -35.500001,20.49609 z" /></pattern></defs><g
     inkscape:groupmode="layer"
     id="layer2"
     inkscape:label="Background" /><g
     inkscape:groupmode="layer"
     id="layer3"
     inkscape:label="Background Decoration" /><g
     inkscape:groupmode="layer"
     id="layer5"
     inkscape:label="Aperture Logo" /><g
     inkscape:groupmode="layer"
     id="layer4"
     inkscape:label="Text"><g
       id="g29"
       inkscape:export-filename="sign_no_power.png"
       inkscape:export-xdpi="96"
       inkscape:export-ydpi="96"><rect
         style="fill:#000000;stroke:none;stroke-width:0.264583;stroke-linecap:round;stroke-linejoin:round;stroke-dasharray:none"
         id="rect1"
         width="33.866665"
         height="16.933332"
         x="1.1334196e-06"
         y="1.1571683e-06" /><rect
         style="fill:url(#pattern26);stroke:none;stroke-width:0.264583;stroke-linecap:round;stroke-linejoin:round;stroke-dasharray:none"
         id="rect1-8"
         width="33.866665"
         height="16.933332"
         x="1.1334196e-06"
         y="1.1571683e-06" /><path
         style="fill:#333333;fill-opacity:1;stroke-width:0.0696874"
         d="m 16.490693,16.945394 c -0.651369,-0.03942 -1.313606,-0.157794 -1.950576,-0.349609 -0.276452,-0.08325 -0.685942,-0.231781 -0.713449,-0.258818 -0.01452,-0.01452 -0.861707,-4.61039 -0.851383,-4.619442 0.0029,-0.0026 6.740204,4.623784 6.833677,4.692427 l 0.04564,0.03319 -0.312891,0.102961 c -0.993475,0.326929 -2.018397,0.461005 -3.050919,0.399049 z m 1.874577,-2.042425 c -1.062906,-0.735977 -1.92549,-1.340503 -1.916847,-1.343387 0.05878,-0.01936 8.16356,-1.514354 8.170994,-1.506928 0.01659,0.0166 -0.247341,0.525935 -0.42581,0.821332 -0.673564,1.114821 -1.597877,2.050875 -2.715408,2.749934 -0.234962,0.147007 -0.646043,0.373672 -0.829712,0.457478 -0.06085,0.02766 -0.16464,0.0751 -0.230607,0.105104 l -0.119971,0.05462 z M 13.066995,16.02662 C 12.280167,15.63165 11.597594,15.134958 10.950078,14.486246 10.254192,13.789068 9.6922876,12.985175 9.2810121,12.098403 L 9.1571699,11.831356 9.2792145,11.655237 c 0.067074,-0.09688 0.6690001,-0.966105 1.3374825,-1.931637 0.668447,-0.9655248 1.217505,-1.7534031 1.22007,-1.7508446 0.0025,0.0026 0.34145,1.8216791 0.753022,4.0424906 0.411633,2.220803 0.753096,4.060648 0.758871,4.088535 0.006,0.02904 0.0024,0.05048 -0.0083,0.05048 -0.01037,0 -0.133316,-0.05739 -0.273409,-0.127852 z m 7.246348,-3.795103 c 0.0753,-0.108837 1.134287,-1.64993 2.353263,-3.4245823 1.218977,-1.774659 2.222969,-3.2335429 2.231087,-3.2419651 0.02074,-0.021436 0.205229,0.5490298 0.2936,0.9095569 0.325337,1.3274556 0.312961,2.7017448 -0.03665,4.0563605 -0.07945,0.307915 -0.253701,0.842955 -0.318077,0.976493 l -0.03942,0.08221 -2.258656,0.409905 c -1.242259,0.225421 -2.281903,0.4144 -2.310308,0.419933 -0.0491,0.0097 -0.04563,9.99e-4 0.08526,-0.187875 z M 8.851898,11.071876 C 8.3175273,9.4481447 8.3031453,7.7187842 8.8104128,6.0460345 8.8858495,5.7972424 9.0370087,5.3849861 9.0622475,5.3592633 c 0.014518,-0.014521 4.6103425,-0.8617 4.6194635,-0.8513901 0.0015,0.00156 -0.507818,0.7455601 -1.131644,1.6531671 C 11.926219,7.0686541 10.87204,8.6036139 10.207459,9.5720705 9.5428834,10.540527 8.9890409,11.344032 8.9767053,11.357627 8.9587304,11.37768 8.9338312,11.320978 8.8521018,11.071841 Z M 22.015439,8.90511 C 22.009239,8.871228 21.668113,7.0314944 21.257363,4.81645 20.846628,2.6013986 20.514803,0.78485018 20.519984,0.77966413 c 0.0052,-0.005296 0.127507,0.0490946 0.271749,0.12142269 1.64388,0.81978298 3.00295,2.22849358 3.793884,3.93247708 0.122321,0.2635897 0.123635,0.268015 0.09183,0.3134449 -0.01797,0.025585 -0.614928,0.8882456 -1.327035,1.917545 -0.712128,1.0292993 -1.301297,1.8783037 -1.309262,1.8866637 -0.0076,0.00829 -0.01936,-0.012446 -0.02559,-0.046329 z M 17.464522,2.8630452 C 15.581523,1.5687804 14.035838,0.50463761 14.029657,0.49828987 14.011677,0.47962017 14.612846,0.287598 14.941904,0.20717968 c 1.369179,-0.33460387 2.805382,-0.30957255 4.19451,0.0730196 0.288275,0.0793812 0.822079,0.26158431 0.884228,0.30182805 0.03111,0.0200526 0.09231,0.33322091 0.454714,2.32637847 0.230329,1.2667097 0.417442,2.3041753 0.415783,2.3054823 -0.0016,0.00156 -1.543604,-1.0565849 -3.426603,-2.3508429 z M 9.2541695,4.8492396 C 9.2776802,4.7722094 9.4972226,4.3510332 9.6315056,4.1252258 10.011334,3.4863046 10.398447,2.9913965 10.930681,2.4642657 11.627099,1.7745213 12.418683,1.2231336 13.3009,0.81329048 l 0.267323,-0.12418858 0.110636,0.0768918 c 0.06085,0.0421799 0.930121,0.6441074 1.931734,1.3374198 1.001612,0.6933057 1.818795,1.2628651 1.815967,1.2656933 -0.0028,0.0026 -1.822128,0.3419334 -4.042885,0.753519 -2.220763,0.411634 -4.0613956,0.7532425 -4.0902923,0.7591891 -0.048399,0.010372 -0.051167,0.0076 -0.039417,-0.032499 z"
         id="path27" /><text
         xml:space="preserve"
         style="font-style:normal;font-variant:normal;font-weight:bold;font-stretch:condensed;font-size:6.61458px;font-family:Univers;-inkscape-font-specification:'Univers Bold Condensed';writing-mode:lr-tb;direction:ltr;fill:#ff0000;stroke:none;stroke-width:0.264583;stroke-linecap:round;stroke-linejoin:round;stroke-dasharray:none"
         x="1.5773664"
         y="10.874465"
         id="text26"><tspan
           sodipodi:role="line"
           id="tspan26"
           style="font-style:normal;font-variant:normal;font-weight:bold;font-stretch:condensed;font-size:6.61458px;font-family:Univers;-inkscape-font-specification:'Univers Bold Condensed';fill:#ff0000;stroke-width:0.264583"
           x="1.5773664"
           y="10.874465">NO POWER</tspan></text></g><g
       id="g28"
       transform="translate(41.275003,15.213543)"
       inkscape:export-filename="sign_locked.png"
       inkscape:export-xdpi="96"
       inkscape:export-ydpi="96"><rect
         style="fill:#000000;stroke:none;stroke-width:0.264583;stroke-linecap:round;stroke-linejoin:round;stroke-dasharray:none"
         id="rect1-86"
         width="33.866665"
         height="16.933332"
         x="-41.275002"
         y="1.7463076" /><rect
         style="fill:url(#pattern26-9);stroke:none;stroke-width:0.264583;stroke-linecap:round;stroke-linejoin:round;stroke-dasharray:none"
         id="rect1-8-2"
         width="33.866665"
         height="16.933332"
         x="-41.275002"
         y="1.7463076" /><path
         style="fill:#333333;fill-opacity:1;stroke-width:0.0696874"
         d="m -24.784308,18.691701 c -0.651369,-0.03942 -1.313606,-0.157794 -1.950576,-0.349609 -0.276452,-0.08325 -0.685942,-0.231781 -0.713449,-0.258818 -0.01452,-0.01452 -0.861707,-4.61039 -0.851383,-4.619442 0.0029,-0.0026 6.740204,4.623784 6.833677,4.692427 l 0.04564,0.03319 -0.312891,0.102961 c -0.993475,0.326929 -2.018397,0.461005 -3.050919,0.399049 z m 1.874577,-2.042425 c -1.062906,-0.735977 -1.92549,-1.340503 -1.916847,-1.343387 0.05878,-0.01936 8.16356,-1.514354 8.170994,-1.506928 0.01659,0.0166 -0.247341,0.525935 -0.42581,0.821332 -0.673564,1.114821 -1.597877,2.050875 -2.715408,2.749934 -0.234962,0.147007 -0.646043,0.373672 -0.829712,0.457478 -0.06085,0.02766 -0.16464,0.0751 -0.230607,0.105104 l -0.119971,0.05462 z m -5.298275,1.123651 c -0.786828,-0.39497 -1.469401,-0.891662 -2.116917,-1.540374 -0.695886,-0.697178 -1.257791,-1.501071 -1.669066,-2.387843 l -0.123843,-0.267047 0.122045,-0.176119 c 0.06707,-0.09688 0.669,-0.966105 1.337483,-1.931637 0.668447,-0.965525 1.217505,-1.7534034 1.22007,-1.7508454 0.0025,0.0026 0.34145,1.8216794 0.753022,4.0424914 0.411633,2.220803 0.753096,4.060648 0.758871,4.088535 0.006,0.02904 0.0024,0.05048 -0.0083,0.05048 -0.01037,0 -0.133316,-0.05739 -0.273409,-0.127852 z m 7.246348,-3.795103 c 0.0753,-0.108837 1.134287,-1.64993 2.353263,-3.424582 1.218977,-1.7746594 2.222969,-3.2335434 2.231087,-3.2419654 0.02074,-0.02144 0.205229,0.549029 0.2936,0.909556 0.325337,1.327456 0.312961,2.7017454 -0.03665,4.0563614 -0.07945,0.307915 -0.253701,0.842955 -0.318077,0.976493 l -0.03942,0.08221 -2.258656,0.409905 c -1.242259,0.225421 -2.281903,0.4144 -2.310308,0.419933 -0.0491,0.0097 -0.04563,9.99e-4 0.08526,-0.187875 z m -11.461445,-1.159641 c -0.534371,-1.623731 -0.548753,-3.3530924 -0.04149,-5.0258424 0.07544,-0.248792 0.226595,-0.661048 0.251834,-0.686771 0.01452,-0.01452 4.610343,-0.8617 4.619464,-0.85139 0.0015,0.0016 -0.507818,0.74556 -1.131644,1.653167 -0.623848,0.907614 -1.678027,2.4425744 -2.342608,3.4110304 -0.664576,0.968457 -1.218418,1.771962 -1.230754,1.785557 -0.01797,0.02005 -0.04287,-0.03665 -0.124603,-0.285786 z m 13.163541,-2.166766 c -0.0062,-0.03388 -0.347326,-1.8736164 -0.758076,-4.0886604 -0.410735,-2.215051 -0.74256,-4.0316 -0.737379,-4.036786 0.0052,-0.0053 0.127507,0.0491 0.271749,0.121423 1.64388,0.819783 3.00295,2.228493 3.793884,3.932477 0.122321,0.26359 0.123635,0.268015 0.09183,0.313445 -0.01797,0.02558 -0.614928,0.888245 -1.327035,1.917545 -0.712128,1.029299 -1.301297,1.8783034 -1.309262,1.8866634 -0.0076,0.0083 -0.01936,-0.01245 -0.02559,-0.04633 z m -4.550917,-6.0420654 c -1.882999,-1.294265 -3.428684,-2.358407 -3.434865,-2.364755 -0.01798,-0.01867 0.583189,-0.210692 0.912247,-0.29111 1.369179,-0.334604 2.805382,-0.309573 4.19451,0.07302 0.288275,0.07938 0.822079,0.261585 0.884228,0.301828 0.03111,0.02005 0.09231,0.333221 0.454714,2.326379 0.230329,1.266709 0.417442,2.304175 0.415783,2.305482 -0.0016,0.0016 -1.543604,-1.056585 -3.426603,-2.350843 z m -8.210353,1.986195 c 0.02351,-0.07703 0.243053,-0.498207 0.377336,-0.724014 0.379829,-0.638921 0.766942,-1.13383 1.299176,-1.66096 0.696418,-0.689745 1.488002,-1.241132 2.370219,-1.650976 l 0.267323,-0.124188 0.110636,0.07689 c 0.06085,0.04218 0.930121,0.644107 1.931734,1.337419 1.001612,0.693306 1.818795,1.262866 1.815967,1.265694 -0.0028,0.0026 -1.822128,0.341933 -4.042885,0.753519 -2.220763,0.411634 -4.061396,0.753242 -4.090293,0.759189 -0.0484,0.01037 -0.05117,0.0076 -0.03942,-0.0325 z"
         id="path27-8" /><text
         xml:space="preserve"
         style="font-style:normal;font-variant:normal;font-weight:bold;font-stretch:condensed;font-size:6.61458px;font-family:Univers;-inkscape-font-specification:'Univers Bold Condensed';writing-mode:lr-tb;direction:ltr;fill:#ff0000;stroke:none;stroke-width:0.264583;stroke-linecap:round;stroke-linejoin:round;stroke-dasharray:none"
         x="-35.133965"
         y="12.620771"
         id="text26-5"><tspan
           sodipodi:role="line"
           id="tspan26-0"
           style="font-style:normal;font-variant:normal;font-weight:bold;font-stretch:condensed;font-size:6.61458px;font-family:Univers;-inkscape-font-specification:'Univers Bold Condensed';fill:#ff0000;stroke-width:0.264583"
           x="-35.133965"
           y="12.620771">LOCKED</tspan></text></g><g
       id="g27"
       transform="translate(33.072919,10.080683)"
       inkscape:export-filename="sign_unlocked.png"
       inkscape:export-xdpi="96"
       inkscape:export-ydpi="96"><rect
         style="fill:#000000;stroke:none;stroke-width:0.264583;stroke-linecap:round;stroke-linejoin:round;stroke-dasharray:none"
         id="rect1-0"
         width="33.866665"
         height="16.933332"
         x="-33.072918"
         y="23.839018" /><rect
         style="fill:url(#pattern26-0);stroke:none;stroke-width:0.264583;stroke-linecap:round;stroke-linejoin:round;stroke-dasharray:none"
         id="rect1-8-6"
         width="33.866665"
         height="16.933332"
         x="-33.072918"
         y="23.839018" /><path
         style="fill:#333333;fill-opacity:1;stroke-width:0.0696874"
         d="m -16.582225,40.78441 c -0.651369,-0.03942 -1.313606,-0.157794 -1.950576,-0.349609 -0.276452,-0.08325 -0.685942,-0.231781 -0.713449,-0.258818 -0.01452,-0.01452 -0.861707,-4.61039 -0.851383,-4.619442 0.0029,-0.0026 6.740204,4.623784 6.833677,4.692427 l 0.04564,0.03319 -0.312891,0.102961 c -0.993475,0.326929 -2.018397,0.461005 -3.050919,0.399049 z m 1.874577,-2.042425 c -1.062906,-0.735977 -1.92549,-1.340503 -1.916847,-1.343387 0.05878,-0.01936 8.16356,-1.514354 8.170994,-1.506928 0.01659,0.0166 -0.247341,0.525935 -0.42581,0.821332 -0.673564,1.114821 -1.597877,2.050875 -2.715408,2.749934 -0.234962,0.147007 -0.646043,0.373672 -0.829712,0.457478 -0.06085,0.02766 -0.16464,0.0751 -0.230607,0.105104 l -0.119971,0.05462 z m -5.298275,1.123651 c -0.786828,-0.39497 -1.469401,-0.891662 -2.116917,-1.540374 -0.695886,-0.697178 -1.25779,-1.501071 -1.669066,-2.387843 l -0.123842,-0.267047 0.122045,-0.176119 c 0.06707,-0.09688 0.669,-0.966105 1.337482,-1.931637 0.668447,-0.965525 1.217505,-1.753403 1.22007,-1.750845 0.0025,0.0026 0.34145,1.82168 0.753022,4.042491 0.411633,2.220803 0.753096,4.060648 0.758871,4.088535 0.006,0.02904 0.0024,0.05048 -0.0083,0.05048 -0.01037,0 -0.133316,-0.05739 -0.273409,-0.127852 z m 7.246348,-3.795103 c 0.0753,-0.108837 1.134287,-1.64993 2.353263,-3.424582 1.218977,-1.774659 2.222969,-3.233543 2.231087,-3.241965 0.02074,-0.02144 0.205229,0.549029 0.2936,0.909556 0.325337,1.327456 0.312961,2.701745 -0.03665,4.056361 -0.07945,0.307915 -0.253701,0.842955 -0.318077,0.976493 l -0.03942,0.08221 -2.258656,0.409905 c -1.242259,0.225421 -2.281903,0.4144 -2.310308,0.419933 -0.0491,0.0097 -0.04563,9.99e-4 0.08526,-0.187875 z M -24.22102,34.910892 c -0.534371,-1.623731 -0.548753,-3.353092 -0.04149,-5.025841 0.07544,-0.248793 0.226596,-0.661049 0.251834,-0.686772 0.01452,-0.01452 4.610343,-0.8617 4.619464,-0.85139 0.0015,0.0016 -0.507818,0.74556 -1.131644,1.653167 -0.623848,0.907614 -1.678027,2.442574 -2.342608,3.411031 -0.664576,0.968456 -1.218418,1.771961 -1.230754,1.785556 -0.01797,0.02005 -0.04287,-0.03665 -0.124603,-0.285786 z m 13.163541,-2.166766 c -0.0062,-0.03388 -0.347326,-1.873616 -0.758076,-4.08866 -0.410735,-2.215051 -0.74256,-4.0316 -0.737379,-4.036786 0.0052,-0.0053 0.127507,0.04909 0.271749,0.121423 1.64388,0.819783 3.00295,2.228493 3.793884,3.932477 0.122321,0.26359 0.123635,0.268015 0.09183,0.313445 -0.01797,0.02558 -0.614928,0.888245 -1.327035,1.917545 -0.712128,1.029299 -1.301297,1.878304 -1.309262,1.886663 -0.0076,0.0083 -0.01936,-0.01244 -0.02559,-0.04633 z m -4.550917,-6.042065 c -1.882999,-1.294265 -3.428684,-2.358407 -3.434865,-2.364755 -0.01798,-0.01867 0.583189,-0.210692 0.912247,-0.29111 1.369179,-0.334604 2.805382,-0.309573 4.19451,0.07302 0.288275,0.07938 0.822079,0.261585 0.884228,0.301828 0.03111,0.02005 0.09231,0.333221 0.454714,2.326379 0.230329,1.26671 0.417442,2.304175 0.415783,2.305482 -0.0016,0.0016 -1.543604,-1.056585 -3.426603,-2.350843 z m -8.210353,1.986195 c 0.02351,-0.07703 0.243054,-0.498207 0.377337,-0.724014 0.379828,-0.638921 0.766941,-1.133829 1.299175,-1.66096 0.696418,-0.689745 1.488002,-1.241132 2.370219,-1.650976 l 0.267323,-0.124188 0.110636,0.07689 c 0.06085,0.04218 0.930121,0.644107 1.931734,1.337419 1.001612,0.693306 1.818795,1.262866 1.815967,1.265694 -0.0028,0.0026 -1.822128,0.341933 -4.042885,0.753519 -2.220763,0.411634 -4.061396,0.753242 -4.090292,0.759189 -0.0484,0.01037 -0.05117,0.0076 -0.03942,-0.0325 z"
         id="path27-84" /><text
         xml:space="preserve"
         style="font-style:normal;font-variant:normal;font-weight:bold;font-stretch:condensed;font-size:6.61458px;font-family:Univers;-inkscape-font-specification:'Univers Bold Condensed';writing-mode:lr-tb;direction:ltr;fill:#ff0000;stroke:none;stroke-width:0.264583;stroke-linecap:round;stroke-linejoin:round;stroke-dasharray:none"
         x="-31.148352"
         y="34.713482"
         id="text26-6"><tspan
           sodipodi:role="line"
           id="tspan26-3"
           style="font-style:normal;font-variant:normal;font-weight:bold;font-stretch:condensed;font-size:6.61458px;font-family:Univers;-inkscape-font-specification:'Univers Bold Condensed';fill:#00ff00;stroke-width:0.264583"
           x="-31.148352"
           y="34.713482">UNLOCKED</tspan></text></g></g></svg>
